{"title":"Green Street Hooligans ...(2005)(Dvdrip,Xvid)....Rojo (1337x)","uid":6381373,"size":943962797,"categoryP":"video","categoryS":"movies","magnet":"?xt=urn:btih:d1153ae8160a9e31ed90eda2c1d271a856529bed&amp;dn=Green+Street+Hooligans+...%282005%29%28Dvdrip%2CXvid%29....Rojo+%281337x%29&amp;tr=udp%3A%2F%2Ftracker.openbittorrent.com%3A80&amp;tr=udp%3A%2F%2Fopen.demonii.com%3A1337&amp;tr=udp%3A%2F%2Ftracker.coppersurfer.tk%3A6969&amp;tr=udp%3A%2F%2Fexodus.desync.com%3A6969","seeders":1,"leechers":0,"uploader":".BONE.","files":5,"time":1305039326,"description":"plotw.jpg\nUnjustly expelled from Harvard when a stash of cocaine is found in his possession, Matt moves to London to live with his sister and her husband Steve. He is quickly introduced to Steve's chirpy, cock-sure younger brother Pete. Initially, Pete is reluctant to get acquainted with Matt and allow him to tread around the capital city with him because he may be seen by others as an 'outsider', but after a heavy drinking session with him and his mates he quickly changes his opinion of him.\n &lt;a href=&quot;\nhttp://www.imdb.com/title/tt0385002/&quot; rel=&quot;nofollow&quot; target=&quot;_NEW&quot;&gt;\nhttp://www.imdb.com/title/tt0385002/&lt;/a&gt;\n\n# Elijah Wood as Matt Buckner\n# Charlie Hunnam as Pete Dunham\n# Leo Gregory as Bovver\n# Claire Forlani as Shannon Buckner Dunham\n# Marc Warren as Steve Dunham\n# Ross McCall as Dave\n# Rafe Spall as Swill\n# Kieran Bew as Ike\n &lt;a href=&quot;\nhttp://img853.imageshack.us/img853/3474/63751989.png&quot; rel=&quot;nofollow&quot; target=&quot;_NEW&quot;&gt;\nhttp://img853.imageshack.us/img853/3474/63751989.png&lt;/a&gt;\n &lt;a href=&quot;\nhttp://img687.imageshack.us/img687/677/45010142.png&quot; rel=&quot;nofollow&quot; target=&quot;_NEW&quot;&gt;\nhttp://img687.imageshack.us/img687/677/45010142.png&lt;/a&gt;\n &lt;a href=&quot;\nhttp://img12.imageshack.us/img12/7708/75088327.png&quot; rel=&quot;nofollow&quot; target=&quot;_NEW&quot;&gt;\nhttp://img12.imageshack.us/img12/7708/75088327.png&lt;/a&gt;\n &lt;a href=&quot;\nhttp://img841.imageshack.us/img841/3392/16466633.png&quot; rel=&quot;nofollow&quot; target=&quot;_NEW&quot;&gt;\nhttp://img841.imageshack.us/img841/3392/16466633.png&lt;/a&gt;\n &lt;a href=&quot;\nhttp://img706.imageshack.us/img706/1230/18929732.png&quot; rel=&quot;nofollow&quot; target=&quot;_NEW&quot;&gt;\nhttp://img706.imageshack.us/img706/1230/18929732.png&lt;/a&gt;\n &lt;a href=&quot;\nhttp://img29.imageshack.us/img29/5807/44794735.png&quot; rel=&quot;nofollow&quot; target=&quot;_NEW&quot;&gt;\nhttp://img29.imageshack.us/img29/5807/44794735.png&lt;/a&gt;\n &lt;a href=&quot;\nhttp://img717.imageshack.us/img717/5417/88721130.png&quot; rel=&quot;nofollow&quot; target=&quot;_NEW&quot;&gt;\nhttp://img717.imageshack.us/img717/5417/88721130.png&lt;/a&gt;\n &lt;a href=&quot;\nhttp://img857.imageshack.us/img857/530/42277390.png&quot; rel=&quot;nofollow&quot; target=&quot;_NEW&quot;&gt;\nhttp://img857.imageshack.us/img857/530/42277390.png&lt;/a&gt;\n\n\nGeneral\nComplete name : GREEN STREET HOOLIGANS.avi\nFormat : AVI\nFormat/Info : Audio Video Interleave\nFile size : 900 MiB\nDuration : 1h 44mn\nOverall bit rate : 1 208 Kbps\nWriting application : VirtualDubMod 1.5.4.1 (build 2178/release)\nWriting library : VirtualDubMod build 2178/release\n\nVideo\nID : 0\nFormat : MPEG-4 Visual\nFormat profile : Advanced Simple@L5\nFormat settings, BVOP : Yes\nFormat settings, QPel : No\nFormat settings, GMC : No warppoints\nFormat settings, Matrix : Default (H.263)\nMuxing mode : Packed bitstream\nCodec ID : XVID\nCodec ID/Hint : XviD\nDuration : 1h 44mn\nBit rate : 753 Kbps\nWidth : 608 pixels\nHeight : 256 pixels\nDisplay aspect ratio : 2.35:1\nFrame rate : 25.000 fps\nColor space : YUV\nChroma subsampling : 4:2:0\nBit depth : 8 bits\nScan type : Progressive\nBits/(Pixel*Frame) : 0.193\nStream size : 561 MiB (62%)\nWriting library : XviD 1.2.1 (UTC 2008-12-04)\n\nAudio\nID : 1\nFormat : AC-3\nFormat/Info : Audio Coding 3\nMode extension : CM (complete main)\nCodec ID : 2000\nDuration : 1h 44mn\nBit rate mode : Constant\nBit rate : 448 Kbps\nChannel(s) : 6 channels\nChannel positions : Front: L C R, Side: L R, LFE\nSampling rate : 48.0 KHz\nBit depth : 16 bits\nStream size : 334 MiB (37%)\nAlignment : Split accross interleaves\nInterleave, duration : 80 ms (2.00 video frames)\nInterleave, preload duration : 500 ms\nLanguage : English\n","torrent":{"xt":"urn:btih:d1153ae8160a9e31ed90eda2c1d271a856529bed","amp;dn":"Green+Street+Hooligans+...%282005%29%28Dvdrip%2CXvid%29....Rojo+%281337x%29","amp;tr":["udp%3A%2F%2Ftracker.openbittorrent.com%3A80","udp%3A%2F%2Fopen.demonii.com%3A1337","udp%3A%2F%2Ftracker.coppersurfer.tk%3A6969","udp%3A%2F%2Fexodus.desync.com%3A6969"],"infoHash":"d1153ae8160a9e31ed90eda2c1d271a856529bed","infoHashBuffer":{"type":"Buffer","data":[209,21,58,232,22,10,158,49,237,144,237,162,193,210,113,168,86,82,155,237]},"announce":[],"urlList":[]}}